HIERARCHY
ROOT Hips
{
	OFFSET -0.001795 -0.223333 0.028219
	CHANNELS 6 Xposition Yposition Zposition Zrotation Yrotation Xrotation 
	JOINT LeftUpLeg
	{
		OFFSET 0.069520 -0.091406 -0.006815
		CHANNELS 3 Zrotation Yrotation Xrotation
		JOINT LeftLeg
		{
			OFFSET 0.034277 -0.375199 -0.004496
			CHANNELS 3 Zrotation Yrotation Xrotation
			JOINT LeftFoot
			{
				OFFSET -0.013596 -0.397961 -0.043693
				CHANNELS 3 Zrotation Yrotation Xrotation
				JOINT LeftToe
				{
					OFFSET 0.026358 -0.055791 0.119288
					CHANNELS 3 Zrotation Yrotation Xrotation
					End Site
					{
						OFFSET 0.000000 0.000000 0.000000
					}
				}
			}
		}
	}
	JOINT RightUpLeg
	{
		OFFSET -0.067670 -0.090522 -0.004320
		CHANNELS 3 Zrotation Yrotation Xrotation
		JOINT RightLeg
		{
			OFFSET -0.038290 -0.382569 -0.008850
			CHANNELS 3 Zrotation Yrotation Xrotation
			JOINT RightFoot
			{
				OFFSET 0.015774 -0.398415 -0.042312
				CHANNELS 3 Zrotation Yrotation Xrotation
				JOINT RightToe
				{
					OFFSET -0.025372 -0.048144 0.123348
					CHANNELS 3 Zrotation Yrotation Xrotation
					End Site
					{
						OFFSET 0.000000 0.000000 0.000000
					}
				}
			}
		}
	}
	JOINT Spine
	{
		OFFSET -0.002533 0.108963 -0.026696
		CHANNELS 3 Zrotation Yrotation Xrotation
		JOINT Spine1
		{
			OFFSET 0.005487 0.135180 0.001092
			CHANNELS 3 Zrotation Yrotation Xrotation
			JOINT Spine2
			{
				OFFSET 0.001457 0.052922 0.025425
				CHANNELS 3 Zrotation Yrotation Xrotation
				JOINT Neck
				{
					OFFSET -0.002778 0.213870 -0.042857
					CHANNELS 3 Zrotation Yrotation Xrotation
					JOINT Head
					{
						OFFSET 0.005152 0.064970 0.051349
						CHANNELS 3 Zrotation Yrotation Xrotation
						End Site
						{
							OFFSET 0.000000 0.000000 0.000000
						}
					}
				}
				JOINT LeftShoulder
				{
					OFFSET 0.078845 0.121749 -0.034090
					CHANNELS 3 Zrotation Yrotation Xrotation
					JOINT LeftArm
					{
						OFFSET 0.090977 0.030469 -0.008868
						CHANNELS 3 Zrotation Yrotation Xrotation
						JOINT LeftForeArm
						{
							OFFSET 0.259612 -0.012772 -0.027456
							CHANNELS 3 Zrotation Yrotation Xrotation
							JOINT LeftHand
							{
								OFFSET 0.249234 0.008986 -0.001171
								CHANNELS 3 Zrotation Yrotation Xrotation
								End Site
								{
									OFFSET 0.000000 0.000000 0.000000
								}
							}
						}
					}
				}
				JOINT RightShoulder
				{
					OFFSET -0.081759 0.118833 -0.038615
					CHANNELS 3 Zrotation Yrotation Xrotation
					JOINT RightArm
					{
						OFFSET -0.096012 0.032551 -0.009143
						CHANNELS 3 Zrotation Yrotation Xrotation
						JOINT RightForeArm
						{
							OFFSET -0.253742 -0.013329 -0.021401
							CHANNELS 3 Zrotation Yrotation Xrotation
							JOINT RightHand
							{
								OFFSET -0.255298 0.007772 -0.005559
								CHANNELS 3 Zrotation Yrotation Xrotation
								End Site
								{
									OFFSET 0.000000 0.000000 0.000000
								}
							}
						}
					}
				}
			}
		}
	}
}
MOTION
Frames: 13
Frame Time: 0.050000
-0.255069 0.955768 -0.025436 -3.736794 -10.699763 2.507214 11.731969 0.235645 -5.341130 -3.258368 0.431353 -0.837867 2.781998 5.730159 -1.339591 0.000000 0.000000 0.000000 -13.899472 0.689521 -9.933253 3.005758 -0.187086 3.047180 4.059176 -4.489081 24.587598 0.000000 0.000000 0.000000 -3.906367 0.999318 34.156007 -4.088280 1.417600 -31.258435 -3.564401 7.233870 25.780512 16.614255 -4.300616 -41.466233 0.000000 0.000000 0.000000 -14.430666 -21.863660 9.693702 -29.563112 -29.811437 1.418200 -1.243504 -35.503135 1.712461 0.000000 0.000000 0.000000 31.808289 3.229131 0.864576 49.766830 22.483684 1.714932 10.804595 42.791487 6.672609 0.000000 0.000000 0.000000 
-0.272833 0.953330 -0.024308 -3.068895 -10.214018 2.263124 12.099417 0.239727 -4.966025 -3.152065 0.415214 -0.994792 2.545605 5.234132 -1.163159 0.000000 0.000000 0.000000 -14.150381 0.665061 -9.310776 2.911849 -0.182733 2.992058 9.068953 5.429993 20.887321 0.000000 0.000000 0.000000 -3.287394 0.744860 34.184457 -4.285947 1.456715 -31.209990 -3.973529 8.128962 25.669683 16.883559 -4.197101 -41.805467 0.000000 0.000000 0.000000 -13.645569 -21.366175 9.081164 -31.237097 -29.892836 1.685088 -2.105505 -36.470739 2.001932 0.000000 0.000000 0.000000 31.997261 3.582982 1.608911 49.802846 23.445156 1.994930 8.816239 43.342745 6.120322 0.000000 0.000000 0.000000 
-0.293451 0.950476 -0.023292 -2.334938 -9.623550 1.989416 12.642230 0.256849 -4.902661 -3.138596 0.408621 -0.593952 2.271929 4.639929 -1.065105 0.000000 0.000000 0.000000 -14.429473 0.640544 -8.566258 3.124041 -0.207585 3.136530 12.944739 15.477308 16.941279 0.000000 0.000000 0.000000 -2.889788 0.539979 33.865403 -4.384474 1.475262 -30.448900 -4.298850 8.946268 25.125659 16.677709 -4.051037 -41.323981 0.000000 0.000000 0.000000 -13.539972 -20.975280 8.626431 -32.338792 -29.373740 1.762840 -3.364510 -38.199352 2.475998 0.000000 0.000000 0.000000 32.441873 3.944721 2.328620 49.092599 24.010470 2.063177 7.629784 44.035900 5.840608 0.000000 0.000000 0.000000 
-0.315919 0.947844 -0.022451 -1.499333 -8.862560 1.467919 12.841749 0.245004 -4.630236 -2.508763 0.322224 -0.223092 1.896074 3.877318 -0.770771 0.000000 0.000000 0.000000 -14.282433 0.605869 -7.693718 3.018764 -0.192481 3.619313 15.381068 24.865383 12.510717 0.000000 0.000000 0.000000 -1.935859 0.145363 33.637469 -4.608471 1.527015 -29.949873 -4.674111 10.073815 25.018341 17.270239 -4.060896 -41.705973 0.000000 0.000000 0.000000 -13.630321 -21.294625 8.462702 -33.356357 -29.093080 1.862334 -4.585988 -39.008953 2.860088 0.000000 0.000000 0.000000 32.718215 4.116352 3.114270 48.200676 24.717593 2.049431 6.022439 43.225143 5.178707 0.000000 0.000000 0.000000 
-0.340350 0.945329 -0.022237 -0.826635 -8.080675 0.803742 13.648810 0.270283 -4.262869 -2.397201 0.300347 0.210612 1.437636 2.999286 -0.314591 0.000000 0.000000 0.000000 -14.430045 0.569282 -6.698231 3.280183 -0.224432 3.952085 15.658521 27.935410 10.386052 0.000000 0.000000 0.000000 -1.420254 -0.097547 33.768970 -4.612085 1.537129 -29.214170 -4.791351 10.349619 24.705767 17.507413 -4.126215 -41.520798 0.000000 0.000000 0.000000 -14.633740 -20.842586 8.167196 -33.787044 -28.214796 1.749897 -4.179452 -39.728972 2.721068 0.000000 0.000000 0.000000 32.460260 4.281592 3.501384 47.409357 25.748323 2.321332 4.963672 42.169887 4.617569 0.000000 0.000000 0.000000 
-0.366961 0.942859 -0.023207 -0.322911 -6.940753 0.229928 14.874717 0.299034 -4.030353 -2.434706 0.297868 0.385519 0.758596 1.803827 0.505333 0.000000 0.000000 0.000000 -13.860195 0.513064 -5.892454 3.473015 -0.246479 4.730462 14.857338 29.563192 7.536244 0.000000 0.000000 0.000000 -0.368586 -0.551321 33.886761 -4.626158 1.552939 -28.998319 -4.996536 10.550537 24.827796 18.659093 -4.731639 -40.832266 0.000000 0.000000 0.000000 -15.534377 -20.926105 8.094766 -34.104450 -26.571145 1.403168 -3.767072 -39.131698 2.473895 0.000000 0.000000 0.000000 32.616975 4.426283 3.963032 45.861804 25.877219 2.028632 4.371578 40.631350 4.176947 0.000000 0.000000 0.000000 
-0.395294 0.941800 -0.026065 -0.034193 -5.825238 0.347082 16.002588 0.294660 -3.953149 -1.761935 0.224391 -0.682224 -0.032786 0.805918 2.294789 0.000000 0.000000 0.000000 -13.304374 0.480219 -5.076500 4.795300 -0.436989 3.538853 14.587819 29.895212 6.754256 0.000000 0.000000 0.000000 0.866111 -1.054655 33.669101 -4.938252 1.635808 -28.232463 -5.123924 10.576497 24.347283 18.517823 -4.481717 -41.171967 0.000000 0.000000 0.000000 -16.001303 -20.760688 7.877005 -34.559830 -24.764723 1.074696 -1.747891 -38.013170 1.670262 0.000000 0.000000 0.000000 32.198917 3.928110 3.861875 46.004166 25.970249 2.060620 3.759016 38.893284 3.791327 0.000000 0.000000 0.000000 
-0.423459 0.941351 -0.031442 0.420664 -4.396084 0.324815 16.708727 0.265843 -4.211906 -0.057876 0.060362 -1.649286 -1.580589 -1.285621 4.667921 0.000000 0.000000 0.000000 -11.686131 0.423445 -4.544242 4.529471 -0.424860 2.919495 13.435482 28.979890 5.233012 0.000000 0.000000 0.000000 2.113871 -1.613331 34.390673 -5.087832 1.678474 -29.252678 -4.924736 10.813622 25.616059 20.181570 -5.205777 -41.206149 0.000000 0.000000 0.000000 -17.285884 -20.970622 7.862816 -34.184379 -23.315375 0.671082 -0.715505 -36.452455 1.219369 0.000000 0.000000 0.000000 31.987120 3.605745 4.064326 44.517025 26.683870 1.907667 2.474221 37.521459 3.226862 0.000000 0.000000 0.000000 
-0.448433 0.943565 -0.039037 0.773883 -2.752706 0.860460 17.078124 0.268897 -5.930789 1.296426 -0.083456 -1.438340 -2.811857 -2.566373 6.863469 0.000000 0.000000 0.000000 -10.853310 0.385961 -4.978331 5.447162 -0.555654 2.624463 12.825990 27.478503 5.247107 0.000000 0.000000 0.000000 2.822594 -2.070093 35.281300 -5.226300 1.718584 -29.321174 -4.616626 11.013998 25.505098 19.730374 -4.831374 -41.177896 0.000000 0.000000 0.000000 -18.304288 -21.037244 7.646273 -34.144817 -22.508450 0.604215 -0.238847 -34.279270 0.957564 0.000000 0.000000 0.000000 31.249525 3.280214 4.245916 44.342494 27.091789 1.971924 1.071003 36.768398 2.776289 0.000000 0.000000 0.000000 
-0.468283 0.946911 -0.046953 1.191722 -1.868612 2.215930 17.310144 0.287680 -7.770764 1.234825 -0.072928 -1.474921 -2.329090 0.449122 11.858047 0.000000 0.000000 0.000000 -10.242921 0.408065 -5.994368 5.961048 -0.613381 1.259126 12.817821 26.166916 6.398546 0.000000 0.000000 0.000000 3.286190 -2.306257 34.789100 -5.113779 1.697496 -29.077487 -3.588670 10.641404 25.076756 18.658984 -4.454625 -40.342742 0.000000 0.000000 0.000000 -21.025562 -20.005628 7.134455 -34.903622 -19.897126 0.142327 -0.831404 -34.458780 1.177960 0.000000 0.000000 0.000000 29.104540 3.466229 4.201936 43.800408 26.995812 2.045816 1.007036 35.806076 2.628424 0.000000 0.000000 0.000000 
-0.483143 0.951052 -0.053782 1.803021 -1.397161 3.620983 16.374557 0.236650 -9.372748 0.469428 -0.014824 -0.988098 0.906391 7.736107 19.357649 0.000000 0.000000 0.000000 -9.931473 0.453106 -7.528904 5.965117 -0.610028 0.622927 12.929306 25.151923 7.596890 0.000000 0.000000 0.000000 4.387319 -2.696688 34.280047 -5.901052 1.833314 -29.511709 -3.094775 11.434200 25.340662 18.298348 -4.122822 -40.316787 0.000000 0.000000 0.000000 -22.551764 -19.991074 6.830700 -35.925219 -17.479517 -0.314344 -2.662022 -33.266000 1.659903 0.000000 0.000000 0.000000 27.872663 3.015097 4.198616 42.844943 27.813401 2.163017 1.001398 35.557633 2.660263 0.000000 0.000000 0.000000 
-0.494486 0.954592 -0.058628 2.692993 -0.683963 4.643690 14.268654 0.027953 -9.601492 -1.096342 0.128097 -0.313636 4.009615 12.954499 24.984392 0.000000 0.000000 0.000000 -10.153523 0.451048 -7.712434 5.948100 -0.591567 -1.348313 13.002542 24.050538 8.856354 0.000000 0.000000 0.000000 5.005886 -2.931661 33.617400 -5.646602 1.787586 -29.385104 -3.779834 11.088356 25.505102 18.793307 -4.436984 -39.743174 0.000000 0.000000 0.000000 -23.386181 -18.847238 6.138965 -36.990002 -14.687317 -1.014332 -4.169796 -34.224215 2.169805 0.000000 0.000000 0.000000 27.180568 3.008145 4.188262 42.638190 28.109449 2.254767 2.198815 35.853140 3.080525 0.000000 0.000000 0.000000 
-0.503388 0.957398 -0.061617 3.152420 -0.193964 5.188006 12.550576 -0.121744 -9.529908 -1.395675 0.131097 0.958251 2.227092 13.124839 40.521239 0.000000 0.000000 0.000000 -10.226702 0.445636 -7.799943 6.214380 -0.608141 -2.286084 12.986923 23.292814 9.619064 0.000000 0.000000 0.000000 5.242039 -3.066537 33.612221 -5.900876 1.837409 -29.273006 -3.933355 11.405621 25.319389 18.784578 -4.470426 -39.118359 0.000000 0.000000 0.000000 -23.725644 -18.251062 5.566821 -38.004819 -13.301986 -1.333462 -6.840923 -34.446039 2.970284 0.000000 0.000000 0.000000 27.044742 3.166892 4.486938 42.471803 29.012952 2.535117 2.319453 35.380901 3.077743 0.000000 0.000000 0.000000 
